<?xml version="1.0" encoding="UTF-8"?>
<!-- Generated by Pixelmator Pro 3.2.3 -->
<svg width="800" height="168" viewBox="0 0 800 168" xmlns="http://www.w3.org/2000/svg" xmlns:xlink="http://www.w3.org/1999/xlink">
    <g id="Gruppe">
        <g id="g1">
            <path id="Pfad" fill="#333333" stroke="none" d="M 16.118805 14.143997 L 39.347061 14.143997 L 39.347061 155.923157 L 16.118805 155.923157 Z"/>
        </g>
        <g id="g2">
            <path id="path1" fill="#333333" stroke="none" d="M 138.053238 155.923157 L 96.957092 37.575272 L 96.162971 37.575272 C 97.155624 55.049454 97.751221 71.530792 97.751221 87.019272 L 97.751221 155.923157 L 76.706825 155.923157 L 76.706825 14.143997 L 109.464615 14.143997 L 148.773956 126.931892 L 149.369568 126.931892 L 189.870102 14.143997 L 222.627899 14.143997 L 222.627899 155.923157 L 200.392319 155.923157 L 200.392319 85.82785 C 200.392319 78.679321 200.590851 69.54509 200.789383 58.226578 C 201.186447 46.908073 201.583511 40.156685 201.782043 37.773849 L 200.987915 37.773849 L 158.502045 155.923157 L 138.053238 155.923157 Z"/>
        </g>
        <g id="g3">
            <path id="path2" fill="#333333" stroke="none" d="M 353.825836 57.035164 C 353.825836 71.729362 348.862549 83.246437 339.333008 90.990677 C 329.604919 98.933487 315.707672 102.904892 297.839813 102.904892 L 283.148438 102.904892 L 283.148438 155.923157 L 259.920166 155.923157 L 259.920166 14.143997 L 300.81778 14.143997 C 318.487122 14.143997 331.788788 17.718262 340.5242 25.065353 C 349.45813 32.213867 353.825836 42.936676 353.825836 57.035164 Z M 283.148438 83.445 L 295.457397 83.445 C 307.369354 83.445 316.104736 81.260735 321.663666 77.28933 C 327.222534 73.119354 330.001984 66.566544 330.001984 57.829445 C 330.001984 49.688049 327.421082 43.532387 322.457794 39.560974 C 317.494476 35.589584 309.751709 33.603867 299.229523 33.603867 L 283.148438 33.603867 L 283.148438 83.445 Z"/>
        </g>
        <g id="g4">
            <path id="path3" fill="#12a9de" stroke="none" d="M 425.345032 36.185287 C 424.749451 38.965271 423.955322 42.539536 422.764099 46.908073 C 421.771484 51.276619 420.580292 55.248024 419.587585 58.623718 C 418.59494 62.197983 407.874237 94.564941 387.425385 155.923157 L 363.403015 155.923157 L 413.036041 14.143997 L 437.852539 14.143997 L 487.684082 155.923157 L 463.661713 155.923157 L 434.477509 68.353668 C 430.30835 55.843735 427.131836 45.120949 425.345032 36.185287 Z"/>
        </g>
        <g id="g5">
            <path id="path4" fill="#bf9622" stroke="none" d="M 587.144714 14.143997 L 611.167053 14.143997 L 561.534058 155.923157 L 537.114624 155.923157 L 487.680145 14.143997 L 511.503998 14.143997 L 541.085266 102.309174 C 542.673523 106.479156 544.26178 111.840546 546.048584 118.591942 C 547.835327 125.14476 548.828064 130.109009 549.423584 133.286133 C 550.217773 128.321884 551.607422 122.761917 553.394287 116.209099 C 554.982544 109.854851 556.570801 105.089165 557.563416 101.912033 L 587.144714 14.143997 Z"/>
        </g>
        <g id="g6">
            <path id="path5" fill="#333333" stroke="none" d="M 629.841003 14.143997 L 653.069275 14.143997 L 653.069275 155.923157 L 629.841003 155.923157 Z"/>
        </g>
        <g id="g7">
            <path id="path6" fill="#333333" stroke="none" d="M 739.466431 155.923157 L 716.238159 155.923157 L 716.238159 34.001007 L 674.546448 34.001007 L 674.546448 14.143997 L 781.158142 14.143997 L 781.158142 34.001007 L 739.466431 34.001007 L 739.466431 155.923157 Z"/>
        </g>
    </g>
</svg>
